<?xml version="1.0" standalone="no"?>
<!DOCTYPE svg PUBLIC "-//W3C//DTD SVG 20010904//EN"
 "http://www.w3.org/TR/2001/REC-SVG-20010904/DTD/svg10.dtd">
<svg version="1.0" xmlns="http://www.w3.org/2000/svg"
 width="750.000000pt" height="750.000000pt" viewBox="0 0 750.000000 750.000000"
 preserveAspectRatio="xMidYMid meet">
<metadata>
Created by potrace 1.14, written by Peter Selinger 2001-2017
</metadata>
<g transform="translate(0.000000,750.000000) scale(0.100000,-0.100000)"
fill="#000000" stroke="none">
<path d="M1405 7485 c-142 -23 -222 -43 -334 -84 -396 -146 -713 -431 -902
-812 -46 -91 -110 -266 -124 -334 -3 -16 -13 -64 -22 -105 -15 -68 -17 -280
-19 -2370 -3 -2468 -5 -2349 47 -2552 61 -241 184 -476 349 -666 157 -181 381
-345 590 -430 30 -13 64 -27 75 -32 43 -18 155 -50 255 -72 l105 -23 2295 -2
c1285 -1 2317 2 2345 7 28 5 68 12 90 15 245 39 525 166 736 335 68 54 210
198 266 270 149 193 264 442 307 665 9 44 19 94 23 110 4 17 8 1058 10 2315 1
1958 0 2298 -13 2379 -45 291 -145 527 -324 766 -49 66 -212 232 -274 280
-249 192 -520 304 -831 344 -40 6 -1043 9 -2320 9 -1777 0 -2267 -3 -2330 -13z"/>
</g>
</svg>
